<svg width="44" height="42" viewBox="0 0 44 42" fill="none" xmlns="http://www.w3.org/2000/svg">
<path d="M41.0895 27.4765C39.921 27.4765 38.9272 28.224 38.5599 29.267L25.876 26.6707C25.8789 26.6107 25.8805 26.5503 25.8805 26.4897C25.8805 26.1828 25.8427 25.8848 25.7717 25.6L32.7234 22.3765C33.3527 23.4913 34.5484 24.2442 35.9199 24.2442C37.9459 24.2442 39.5882 22.6018 39.5882 20.5758C39.5882 19.1423 38.7659 17.901 37.5672 17.2975L38.5625 13.822C38.5925 13.8233 38.6225 13.8243 38.6529 13.8243C39.7 13.8243 40.549 12.9753 40.549 11.9282C40.549 10.881 39.7 10.032 38.6529 10.032C37.6057 10.032 36.7567 10.881 36.7567 11.9282C36.7567 12.7115 37.2317 13.3837 37.9094 13.6728L36.9417 17.0518C36.6174 16.958 36.2745 16.9075 35.9199 16.9075C34.9994 16.9075 34.158 17.2467 33.5139 17.8067L32.2834 16.6427C32.6112 16.1978 32.8049 15.6483 32.8049 15.0535C32.8049 13.5725 31.6044 12.372 30.1234 12.372C28.9889 12.372 28.019 13.0765 27.6272 14.0718L23.7175 13.4215L24.221 5.92183C25.5299 5.74417 26.5385 4.6225 26.5385 3.265C26.5385 1.784 25.338 0.5835 23.857 0.5835C22.376 0.5835 21.1755 1.784 21.1755 3.265C21.1755 4.48633 21.992 5.51683 23.109 5.84067L22.6123 13.2377L16.1508 12.1628C16.0467 11.2142 15.2428 10.4758 14.2663 10.4758C13.8608 10.4758 13.4853 10.6035 13.177 10.8203L10.0335 7.17833C10.2403 6.8745 10.3613 6.50767 10.3613 6.1125C10.3613 5.06533 9.51234 4.21633 8.46517 4.21633C7.418 4.21633 6.569 5.06533 6.569 6.1125C6.569 7.15967 7.418 8.00867 8.46517 8.00867C8.87467 8.00867 9.25351 7.8785 9.56334 7.65783L12.7043 11.297C12.4937 11.6025 12.37 11.9727 12.37 12.372C12.37 12.8167 12.5235 13.2253 12.7798 13.5487L9.85334 18.276C9.42501 18.1008 8.95634 18.0038 8.46501 18.0038C7.28 18.0038 6.2265 18.5658 5.55584 19.4377L3.837 18.2857C3.955 18.0387 4.021 17.762 4.021 17.47C4.021 16.4228 3.172 15.5738 2.12483 15.5738C1.07767 15.5738 0.228666 16.4228 0.228666 17.47C0.228666 18.5172 1.07767 19.3662 2.12483 19.3662C2.63883 19.3662 3.10467 19.1613 3.44617 18.8293L5.19734 20.003C4.941 20.5037 4.7965 21.071 4.7965 21.6722C4.7965 22.8838 5.384 23.9582 6.28967 24.6262L4.8825 26.6228C4.5035 26.4178 4.06967 26.3013 3.6085 26.3013C2.1275 26.3013 0.927 27.5018 0.927 28.9828C0.927 30.4638 2.1275 31.6643 3.6085 31.6643C5.0895 31.6643 6.29 30.4638 6.29 28.9828C6.29 28.2035 5.9575 27.502 5.42667 27.012L6.8635 24.9733C7.34734 25.2085 7.89067 25.3405 8.46501 25.3405C9.10151 25.3405 9.70001 25.1783 10.2218 24.8932L13.7608 30.3702C13.372 30.7173 13.1272 31.2223 13.1272 31.7847C13.1272 32.8318 13.9762 33.6808 15.0233 33.6808C16.0705 33.6808 16.9195 32.8318 16.9195 31.7847C16.9195 30.7375 16.0705 29.8885 15.0233 29.8885C14.7788 29.8885 14.5455 29.9353 14.3308 30.0195L10.7773 24.52C11.6048 23.8473 12.1335 22.8217 12.1335 21.6722C12.1335 20.5227 11.6183 19.5233 10.8092 18.8505L13.6993 14.1817C13.8783 14.2377 14.0687 14.2678 14.2662 14.2678C14.993 14.2678 15.624 13.8587 15.9423 13.2583L22.5372 14.3553L21.9682 22.8293C21.2863 22.8742 20.6553 23.1052 20.1257 23.4722L19.061 22.4488C19.322 22.124 19.4785 21.7117 19.4785 21.2625C19.4785 20.2153 18.6295 19.3663 17.5823 19.3663C16.5352 19.3663 15.6862 20.2153 15.6862 21.2625C15.6862 22.3097 16.5352 23.1587 17.5823 23.1587C17.9378 23.1587 18.2705 23.0605 18.5548 22.8903L19.6098 23.9043C18.951 24.5675 18.5438 25.481 18.5438 26.4897C18.5438 28.4155 20.028 29.9947 21.915 30.146V36.143C20.7678 36.4472 19.9223 37.4923 19.9223 38.735C19.9223 40.216 21.1228 41.4165 22.6038 41.4165C24.0849 41.4165 25.2854 40.216 25.2854 38.735C25.2854 37.399 24.3084 36.2915 23.03 36.0873V30.0663C24.2434 29.79 25.2278 28.9123 25.6534 27.7632L38.4169 30.3758C38.5277 31.755 39.682 32.8395 41.0895 32.8395C42.5705 32.8395 43.771 31.639 43.771 30.158C43.771 28.677 42.5705 27.4765 41.0895 27.4765ZM37.4259 11.9282C37.4259 11.2515 37.9764 10.701 38.653 10.701C39.3297 10.701 39.8802 11.2515 39.8802 11.9282C39.8802 12.6048 39.3297 13.1553 38.653 13.1553C37.9764 13.1553 37.4259 12.6048 37.4259 11.9282ZM22.0675 3.26483C22.0675 2.27817 22.8703 1.47533 23.857 1.47533C24.8437 1.47533 25.6465 2.27817 25.6465 3.26483C25.6465 4.2515 24.8437 5.05433 23.857 5.05433C22.8703 5.05433 22.0675 4.2515 22.0675 3.26483ZM2.12517 18.6973C1.4485 18.6973 0.898 18.1468 0.898 17.4702C0.898 16.7935 1.4485 16.243 2.12517 16.243C2.80184 16.243 3.35234 16.7935 3.35234 17.4702C3.35234 18.1468 2.80184 18.6973 2.12517 18.6973ZM3.60884 30.7725C2.62217 30.7725 1.81933 29.9697 1.81933 28.983C1.81933 27.9963 2.62217 27.1935 3.60884 27.1935C4.5955 27.1935 5.39834 27.9963 5.39834 28.983C5.39834 29.9697 4.5955 30.7725 3.60884 30.7725ZM16.2505 31.7848C16.2505 32.4615 15.7 33.012 15.0233 33.012C14.3467 33.012 13.7962 32.4615 13.7962 31.7848C13.7962 31.1082 14.3467 30.5577 15.0233 30.5577C15.7 30.5577 16.2505 31.1082 16.2505 31.7848ZM10.2707 23.4778C9.78834 23.9602 9.14717 24.2257 8.46517 24.2257C7.78317 24.2257 7.142 23.96 6.65967 23.4778C6.17734 22.9955 5.91184 22.3543 5.91184 21.6723C5.91184 20.9903 6.1775 20.3492 6.65967 19.8668C7.142 19.3845 7.78317 19.119 8.46517 19.119C9.14717 19.119 9.78834 19.3847 10.2707 19.8668C10.753 20.3492 11.0185 20.9903 11.0185 21.6723C11.0185 22.3543 10.7528 22.9955 10.2707 23.4778ZM7.23817 6.1125C7.23817 5.43583 7.78867 4.88533 8.46534 4.88533C9.14201 4.88533 9.69251 5.43583 9.69251 6.1125C9.69251 6.78917 9.14201 7.33967 8.46534 7.33967C7.78867 7.33967 7.23817 6.78917 7.23817 6.1125ZM14.2663 13.599C13.5897 13.599 13.0392 13.0485 13.0392 12.3718C13.0392 11.6952 13.5897 11.1447 14.2663 11.1447C14.943 11.1447 15.4935 11.6952 15.4935 12.3718C15.4935 13.0485 14.943 13.599 14.2663 13.599ZM35.9199 18.0225C36.6019 18.0225 37.243 18.2882 37.7254 18.7703C38.2077 19.2527 38.4732 19.8938 38.4732 20.5758C38.4732 21.2578 38.2075 21.899 37.7254 22.3813C37.243 22.8637 36.6019 23.1292 35.9199 23.1292C35.2379 23.1292 34.5967 22.8635 34.1144 22.3813C33.632 21.899 33.3665 21.2578 33.3665 20.5758C33.3665 19.8938 33.6322 19.2527 34.1144 18.7703C34.5967 18.288 35.2379 18.0225 35.9199 18.0225ZM30.1235 13.264C31.1102 13.264 31.913 14.0668 31.913 15.0535C31.913 16.0402 31.1102 16.843 30.1235 16.843C29.1369 16.843 28.334 16.0402 28.334 15.0535C28.334 14.0668 29.1369 13.264 30.1235 13.264ZM27.4447 15.1718C27.5067 16.5978 28.6822 17.735 30.1235 17.735C30.7685 17.735 31.3602 17.5072 31.8229 17.1278L33.051 18.2897C32.5507 18.9167 32.2515 19.7112 32.2515 20.5757C32.2515 20.8342 32.2784 21.0865 32.3294 21.33L25.3395 24.5712C24.8399 23.7585 24.0325 23.1557 23.0797 22.9247L23.6427 14.5395L27.4449 15.172L27.4447 15.1718ZM16.3553 21.2625C16.3553 20.5858 16.9058 20.0353 17.5825 20.0353C18.2592 20.0353 18.8097 20.5858 18.8097 21.2625C18.8097 21.9392 18.2592 22.4897 17.5825 22.4897C16.9058 22.4897 16.3553 21.9392 16.3553 21.2625ZM24.3935 38.735C24.3935 39.7217 23.5907 40.5245 22.604 40.5245C21.6173 40.5245 20.8145 39.7217 20.8145 38.735C20.8145 37.7483 21.6173 36.9455 22.604 36.9455C23.5907 36.9455 24.3935 37.7483 24.3935 38.735ZM24.0178 28.295C23.5355 28.7773 22.8944 29.0428 22.2123 29.0428C21.5303 29.0428 20.8892 28.7772 20.4068 28.295C19.9245 27.8127 19.659 27.1715 19.659 26.4895C19.659 25.8075 19.9247 25.1663 20.4068 24.684C20.8892 24.2017 21.5303 23.9362 22.2123 23.9362C22.8944 23.9362 23.5355 24.2018 24.0178 24.684C24.5002 25.1663 24.7657 25.8075 24.7657 26.4895C24.7657 27.1715 24.5 27.8127 24.0178 28.295ZM41.0899 31.9475C40.1032 31.9475 39.3004 31.1447 39.3004 30.158C39.3004 29.1713 40.1032 28.3685 41.0899 28.3685C42.0765 28.3685 42.8794 29.1713 42.8794 30.158C42.8794 31.1447 42.0765 31.9475 41.0899 31.9475Z" fill="url(#paint0_linear_100_835)"/>
<defs>
<linearGradient id="paint0_linear_100_835" x1="22" y1="0.583333" x2="22" y2="41.4167" gradientUnits="userSpaceOnUse">
<stop stop-color="#BF64FF"/>
<stop offset="1" stop-color="#A82DFF"/>
</linearGradient>
</defs>
</svg>
