<svg width="48" height="48" viewBox="0 0 48 48" fill="none" xmlns="http://www.w3.org/2000/svg">
<path d="M0 8C0 3.58172 3.58172 0 8 0H40C44.4183 0 48 3.58172 48 8V40C48 44.4183 44.4183 48 40 48H8C3.58172 48 0 44.4183 0 40V8Z" fill="#111827"/>
<path fill-rule="evenodd" clip-rule="evenodd" d="M16 11C14.8954 11 14 11.8779 14 12.9608V24.7674V33.7941V35.0196C14 35.5611 14.4477 36 15 36H33C33.5523 36 34 35.5611 34 35.0196V24.7674C34 24.4709 33.8632 24.1903 33.6278 24.0042L31.0917 21.9991C31.2792 21.7105 31.4569 21.4243 31.6237 21.1411C32.5805 19.5174 33.25 17.879 33.25 16.3922C33.25 14.2817 32.4434 12.8807 31.3327 12.0337C30.27 11.2234 29.0353 11 28.25 11H16ZM29.5243 20.7599C29.6529 20.5577 29.7755 20.3578 29.8919 20.1603C30.7945 18.6285 31.25 17.3563 31.25 16.3922C31.25 14.8262 30.6816 14.0213 30.1048 13.5815C29.48 13.105 28.7147 12.9608 28.25 12.9608L16 12.9608V22.7173L23.3722 16.8885C23.7386 16.5988 24.2614 16.5988 24.6278 16.8885L29.5243 20.7599ZM16 25.2362L24 18.9111L28.3998 22.3897C27.7694 23.2429 27.0599 24.1226 26.2965 25.0143C23.6501 28.1057 20.4341 31.2526 17.7932 33.8368C17.7239 33.9047 17.6549 33.9721 17.5864 34.0392H16L16 33.7941L16 25.2362ZM20.416 34.0392C22.7991 31.698 25.5216 28.9696 27.8285 26.2749C28.5869 25.3889 29.3066 24.4996 29.9586 23.6222L32 25.2362V34.0392H20.416Z" fill="white"/>
</svg>
